<svg width="762" height="982" viewBox="0 0 762 982" fill="none" xmlns="http://www.w3.org/2000/svg">
<path d="M454.426 347.5C454.423 181.5 602.077 -42 602.077 -42L-223 -84V1107.5L532.427 1122C532.427 1122 778.852 937.46 760.523 755.5C743.983 591.298 454.429 512.565 454.426 347.5Z" fill="#E9F2FF"/>
<path d="M410.5 351C410.497 158.5 581 -74 581 -74L-279 -96V1095.5L491.006 1110C491.006 1110 765 944.5 723.505 743.5C690.131 581.844 410.503 516.065 410.5 351Z" fill="#D8E7FE"/>
<path d="M342.5 417.5C276 196 557.5 -96 557.5 -96H-345V1095.5L425.006 1110C425.006 1110 723.807 1000.07 657.505 743.5C630.5 639 389.964 575.594 342.5 417.5Z" fill="#CADFFF"/>
</svg>
